<?xml version="1.0" encoding="utf-8"?>
<!-- Generator: Adobe Illustrator 16.0.4, SVG Export Plug-In . SVG Version: 6.00 Build 0)  -->
<!DOCTYPE svg PUBLIC "-//W3C//DTD SVG 1.1//EN" "http://www.w3.org/Graphics/SVG/1.1/DTD/svg11.dtd">
<svg version="1.1" id="Layer_1" xmlns="http://www.w3.org/2000/svg" xmlns:xlink="http://www.w3.org/1999/xlink" x="0px" y="0px"
	 width="70px" height="65px" viewBox="0 0 70 65" enable-background="new 0 0 70 65" xml:space="preserve">
<g>
	<path fill="#33B6E4" d="M47.353,26.104l-0.095,0.099l-0.13,0.044c-0.406,0.137-0.812,0.254-1.212,0.37l-0.165,0.048
		c-1.629,0.312-3.083,1.046-4.256,2.133c-0.459,0.499-0.881,1.105-1.223,1.769l-0.33,0.638l-0.54-0.477
		c-1.274-1.127-2.908-1.779-4.603-1.835l-0.243-0.004c-1.731,0-3.415,0.623-4.741,1.753l-0.531,0.454l-0.327-0.616
		c-0.339-0.637-0.744-1.213-1.205-1.712c-1.143-1.058-2.597-1.792-4.174-2.092l-0.217-0.06c-0.399-0.115-0.806-0.232-1.211-0.37
		l-0.131-0.044l-0.095-0.099c-0.765-0.799-1.424-1.721-1.959-2.742l-0.185-0.353l0.278-0.287c0.579-0.6,1.057-1.246,1.418-1.917
		l0.066-0.138c0.277-0.596,0.618-1.174,1.011-1.712c1.822-2.492,2.797-5.56,2.747-8.64l0.006-0.128C25.299,4.701,20.846,0,15.576,0
		c-5.251,0-9.95,4.71-10.056,10.081l-0.011,0.148c0.001,0.015,0.001,0.029,0.001,0.043c-0.107,3.53,1.023,6.993,3.181,9.767
		c0.172,0.225,0.319,0.461,0.465,0.697l0.168,0.31c0.052,0.104,0.126,0.221,0.198,0.338l0.078,0.126
		c0.374,0.954,0.348,1.883-0.028,2.705c-0.273,0.796-0.864,1.508-1.644,1.954l-0.108,0.048c-0.461,0.147-0.948,0.265-1.447,0.35
		c-1.005,0.14-1.938,0.467-2.788,0.975c-2.275,1.542-3.625,4.125-3.585,6.894v26.912c0,0.632,0.518,1.146,1.155,1.146
		c0.688,0,1.207-0.514,1.207-1.146V34.371c-0.042-1.983,0.917-3.856,2.57-4.997c0.648-0.345,1.288-0.547,1.957-0.637
		c0.584-0.107,1.178-0.257,1.74-0.445c1.397-0.602,2.537-1.795,3.08-3.257c0.062-0.143,0.103-0.26,0.143-0.376l0.204-0.588
		l0.584,0.212c0.876,0.415,1.809,0.646,2.771,0.687c0.605,0,1.288-0.147,2.003-0.435l0.456-0.183l0.242,0.424
		c1.094,1.922,2.257,3.25,3.11,3.552c0.526,0.174,1.016,0.312,1.49,0.447l0.19,0.054c1.1,0.183,2.197,0.679,3.112,1.42
		c0.962,1.049,1.493,2.354,1.558,3.729l0.004,0.089l-0.025,0.087c-0.168,0.593-0.26,1.16-0.279,1.733l0.016,0.105
		c-0.03,2.691,0.743,5.2,2.24,7.333c0.188,0.277,0.358,0.557,0.515,0.846c0.249,0.554,0.249,1.146,0.018,1.66
		c-0.149,0.438-0.456,0.857-0.87,1.165l-0.183,0.09c-3.197,0.896-5.436,3.825-5.446,7.122v9.645c0,0.631,0.518,1.146,1.155,1.146
		c0.646,0,1.164-0.514,1.164-1.146v-9.638c0.004-2.089,1.272-3.947,3.231-4.735l0.411-0.166l0.255,0.36
		c1.104,1.556,2.897,2.516,4.799,2.567c1.877-0.048,3.679-1.006,4.789-2.562l0.255-0.358l0.409,0.164
		c1.963,0.786,3.235,2.646,3.238,4.737v9.63c0,0.631,0.519,1.146,1.155,1.146c0.636,0,1.154-0.514,1.154-1.146v-9.629
		c0.005-3.266-2.1-6.12-5.238-7.102l-0.18-0.095c-0.504-0.398-0.98-0.874-1.416-1.414l-0.262-0.325l0.241-0.341
		c0.119-0.168,0.231-0.343,0.328-0.53l0.068-0.144c0.181-0.401,0.393-0.807,0.625-1.195c1.351-2.163,2.086-4.643,2.132-7.177
		c0.002-0.097-0.015-0.203-0.051-0.333c-0.047-0.414-0.089-0.728-0.158-1.032l-0.153-0.677h0.17c0.086-1.316,0.613-2.56,1.513-3.552
		c0.978-0.8,2.075-1.296,3.234-1.492l0.125-0.039c0.476-0.135,0.968-0.274,1.507-0.453c0.884-0.313,2.092-1.721,3.219-3.762
		l0.262-0.473l0.483,0.247c1.775,0.906,3.616,0.901,5.292,0l0.489-0.263l0.268,0.485c1.127,2.043,2.335,3.454,3.233,3.771
		c0.528,0.174,1.02,0.313,1.496,0.449l0.184,0.052c1.1,0.183,2.197,0.679,3.112,1.42c1.092,1.192,1.633,2.657,1.585,4.183v26.914
		c0,0.632,0.518,1.146,1.155,1.146c0.637,0,1.156-0.514,1.156-1.146V34.433c0.038-2.111-0.729-4.12-2.159-5.666
		c-1.142-1.057-2.596-1.791-4.174-2.091l-0.216-0.06c-0.4-0.115-0.806-0.232-1.212-0.37l-0.13-0.044l-0.095-0.099
		c-0.902-0.942-1.639-2.015-2.192-3.192l-0.241-0.429l0.201-0.329c0.358-0.474,0.648-0.919,0.884-1.362
		c0.024-0.046,0.042-0.104,0.061-0.16l0.048-0.108c0.173-0.297,0.364-0.602,0.574-0.935l0.058-0.089
		c1.851-2.604,2.891-5.674,3.005-8.879l0.014-0.104c0.021-0.088,0.031-0.173,0.031-0.251C64.455,4.701,60.002,0,54.731,0
		c-5.349,0-9.833,4.471-9.998,9.966c-0.015,0.131-0.024,0.18-0.024,0.231c0,5.314,1.769,7.689,2.938,9.259
		c0.285,0.374,0.504,0.664,0.683,0.96l0.081,0.16c0.023,0.075,0.052,0.148,0.09,0.22c0.26,0.488,0.588,0.968,1.001,1.467
		l0.213,0.259l-0.131,0.309l-0.529-0.187l0,0l0.483,0.278C48.994,24.087,48.256,25.161,47.353,26.104z M15.414,22.679
		c-1.504-0.136-2.818-0.899-3.656-2.095l-0.056-0.1l0.438-0.403l-0.494,0.259c-0.301-0.566-0.651-1.113-1.041-1.628
		c-1.293-1.628-2.185-3.596-2.57-5.683l-0.128-0.693l0.96,0.057c0.14,0.011,0.281,0.021,0.422,0.021
		c3.322-0.114,6.53-1.182,9.264-3.089C18.824,9.149,19,8.891,19.062,8.59c0.062-0.3,0.002-0.606-0.169-0.862
		c-0.339-0.512-1.083-0.664-1.604-0.325c-3.008,1.976-6.258,2.95-8.925,2.666l-0.555-0.06l0.059-0.551
		c0.426-3.964,3.65-6.977,7.665-7.164c0.001,0,0.001,0,0.001,0c4.045,0,7.439,3.65,7.439,7.971l0.015,0.141
		c0.045,2.638-0.799,5.252-2.379,7.361c-0.452,0.631-0.853,1.318-1.183,2.034C18.479,21.486,16.8,22.679,15.414,22.679z
		 M37.531,48.351c-0.343,0.538-0.817,0.97-1.371,1.249c-0.493,0.248-1.02,0.373-1.567,0.373c-1.194,0-2.293-0.598-2.942-1.6
		l-0.202-0.312l0.215-0.305c0.213-0.303,0.374-0.594,0.492-0.89l0.202-0.509l0.515,0.193c0.573,0.215,1.15,0.335,1.714,0.359
		c0.109,0.007,0.204,0.011,0.298,0.011c0.443,0,0.903-0.07,1.365-0.207l0.382-0.112l0.232,0.32c0.191,0.265,0.396,0.521,0.613,0.766
		L37.754,48L37.531,48.351z M39.132,38.792c-0.321,1.163-0.798,2.24-1.417,3.202c-0.257,0.438-0.499,0.905-0.706,1.368
		c-0.44,0.807-1.248,1.285-2.128,1.285c-0.123,0-0.247-0.009-0.371-0.029c-1.101-0.115-2.103-0.823-2.587-1.843
		c-0.03-0.057-0.085-0.132-0.17-0.224l-0.156-0.24c-0.03-0.054-0.06-0.109-0.094-0.159c-1.043-1.452-1.689-3.185-1.857-4.998
		l-0.094-1.01l0.908,0.467c1.74,0.895,4.331,1.366,8.151,1.48l0.71,0.022L39.132,38.792z M38.87,35.806
		c-5.506-0.149-7.307-1.078-8.26-1.869l-0.398-0.331l0.303-0.418c0.9-1.247,2.295-1.999,3.826-2.064l0.223-0.005
		c2.38,0,4.429,1.695,4.871,4.029l0.128,0.676L38.87,35.806z M49.516,18.114c-0.904-1.216-1.923-2.585-2.323-5.339l-0.082-0.564
		l0.57-0.066c1.629-0.19,3.108-1.342,4.063-2.274l0.364-0.356l0.39,0.33c1.694,1.431,3.854,2.292,6.079,2.421l0.079-0.001
		c0.001,0,0.001,0,0.002,0c0.681,0,1.188-0.487,1.208-1.11c0.021-0.632-0.48-1.164-1.118-1.185c-2.234-0.132-4.299-1.2-5.681-2.931
		c-0.226-0.299-0.57-0.471-0.933-0.471c-0.384,0-0.734,0.178-0.953,0.477c-0.696,0.913-2.156,2.387-3.353,2.745l-0.841,0.252
		l0.127-0.864c0.56-3.795,3.987-6.883,7.642-6.883c3.886,0,7.203,3.407,7.396,7.595l0.003,0.066l-0.013,0.064
		c-0.012,0.062-0.023,0.125-0.025,0.189c-0.027,2.928-0.952,5.739-2.674,8.121l-0.211,0.353c-0.203,0.335-0.4,0.66-0.579,0.991
		l-0.063,0.097c-1.033,1.889-2.425,2.959-3.885,2.959c-1.511,0-3.182-1.208-4.158-3.005l-0.156-0.27
		c-0.029-0.097-0.062-0.173-0.102-0.242C50.059,18.841,49.795,18.488,49.516,18.114z"/>
</g>
</svg>
