<?xml version="1.0" encoding="utf-8"?>
<!-- Generator: Adobe Illustrator 16.0.4, SVG Export Plug-In . SVG Version: 6.00 Build 0)  -->
<!DOCTYPE svg PUBLIC "-//W3C//DTD SVG 1.1//EN" "http://www.w3.org/Graphics/SVG/1.1/DTD/svg11.dtd">
<svg version="1.1" id="Layer_1" xmlns="http://www.w3.org/2000/svg" xmlns:xlink="http://www.w3.org/1999/xlink" x="0px" y="0px"
	 width="78px" height="70px" viewBox="0 0 78 70" enable-background="new 0 0 78 70" xml:space="preserve">
<g>
	<path fill="#33B6E4" d="M45.182,0.575H0.969C0.435,0.575,0,1.008,0,1.54v64.562c0,0.531,0.435,0.963,0.969,0.963h1.98v1.974
		c0,0.53,0.434,0.961,0.967,0.961c0.534,0,0.969-0.431,0.969-0.961v-1.974h36.381v1.974c0,0.53,0.435,0.961,0.969,0.961
		c0.532,0,0.967-0.431,0.967-0.961v-1.974h1.979c0.534,0,0.969-0.432,0.969-0.963V1.54C46.151,1.008,45.716,0.575,45.182,0.575z
		 M16.212,65.139H6.359v-3.942h9.853V65.139z M16.212,59.268H6.359V55.33h9.853V59.268z M22.106,65.139h-3.958V55.33h3.958V65.139z
		 M28.002,65.139h-3.958V55.33h3.958V65.139z M33.897,65.139h-3.959V55.33h3.959V65.139z M39.791,65.139h-3.957V55.33h3.957V65.139z
		 M44.213,65.139h-2.484V53.398H4.421v11.741H1.938V50.928h42.275V65.139z M6.359,48.998v-9.811h3.957v9.811H6.359z M12.253,48.998
		v-9.811h3.959v9.811H12.253z M28.002,45.055v3.942h-9.854v-3.942H28.002z M18.148,43.129v-3.943h9.854v3.943H18.148z
		 M29.938,48.998v-9.811h3.959v9.811H29.938z M35.834,48.998v-9.811h3.957v9.811H35.834z M44.213,48.998H41.73V37.259H4.421v11.739
		H1.938V34.785h42.275V48.998z M6.359,32.856v-9.809h3.957v9.809H6.359z M12.253,32.856v-9.809h3.959v9.809H12.253z M18.148,32.856
		v-9.809h3.958v9.809H18.148z M24.044,32.856v-9.809h3.958v9.809H24.044z M39.791,28.916v3.94h-9.853v-3.94H39.791z M29.938,26.988
		v-3.941h9.853v3.941H29.938z M44.213,32.856H41.73V21.119H4.421v11.737H1.938V18.645h42.275V32.856z M16.212,12.877v3.84H6.359
		v-3.84H16.212z M6.359,10.846V7.008h9.853v3.838H6.359z M18.148,16.717V6.907h3.958v9.811H18.148z M24.044,16.717V6.907h3.958
		v9.811H24.044z M29.938,16.717V6.907h3.959v9.811H29.938z M35.834,16.717V6.907h3.957v9.811H35.834z M44.213,16.717h-2.484V5.08
		H4.421v11.638H1.938V2.505h42.275V16.717z"/>
	<g>
		<path fill="#33B6E4" d="M72.951,2.823L70.116,0h-7.211L60.07,2.823h-5.05v14.414H78V2.823H72.951z M69.4,1.713l2.835,2.822h4.045
			v10.988h-19.54V4.536h4.045l2.835-2.822H69.4z"/>
		<path fill="#33B6E4" d="M66.51,13.707c1.204,0,2.25-0.433,3.109-1.288c0.859-0.857,1.294-1.898,1.294-3.096
			c0-1.199-0.435-2.239-1.294-3.095c-0.858-0.855-1.904-1.289-3.109-1.289s-2.251,0.434-3.109,1.289
			c-0.859,0.855-1.294,1.896-1.294,3.095c0,1.198,0.435,2.24,1.294,3.096C64.26,13.274,65.306,13.707,66.51,13.707z M66.51,6.652
			c0.728,0,1.364,0.266,1.891,0.79c0.526,0.524,0.792,1.157,0.792,1.882c0,0.735-0.259,1.351-0.792,1.882
			c-0.526,0.523-1.162,0.789-1.891,0.789c-0.74,0-1.357-0.258-1.891-0.79c-0.533-0.529-0.792-1.146-0.792-1.881
			c0-0.726,0.267-1.359,0.792-1.882C65.146,6.918,65.782,6.652,66.51,6.652z"/>
		<path fill="#33B6E4" d="M55.02,69.496H78V52.261H55.02V69.496z M76.278,64.557v3.226h-2.531v-3.226H76.278z M76.278,59.265v3.227
			h-2.531v-3.227H76.278z M76.278,53.975V57.2h-2.531v-3.225H76.278z M72.027,53.975v13.809H60.993V53.975H72.027z M59.272,64.557
			v3.226h-2.532v-3.226H59.272z M59.272,59.265v3.227h-2.532v-3.227H59.272z M59.272,53.975V57.2h-2.532v-3.225H59.272z"/>
		<path fill="#33B6E4" d="M70.762,37.791c-1.193,0-2.231,0.286-3.085,0.848c-0.875,0.578-1.318,1.292-1.318,2.126
			c0,0.833,0.443,1.548,1.318,2.124c0.853,0.563,1.892,0.848,3.085,0.848s2.231-0.285,3.085-0.848
			c0.874-0.577,1.317-1.292,1.317-2.124V25.054l-13.058,2.89v11.875c-0.772-0.409-1.673-0.617-2.683-0.617
			c-1.194,0-2.233,0.286-3.085,0.85c-0.875,0.576-1.319,1.291-1.319,2.123c0,0.834,0.444,1.55,1.318,2.125
			c0.851,0.562,1.89,0.848,3.086,0.848c1.195,0,2.233-0.285,3.086-0.848c0.873-0.576,1.316-1.291,1.316-2.125v-8.481l9.619-2.128
			v6.843C72.672,37.999,71.771,37.791,70.762,37.791z M72.704,41.575c-0.52,0.298-1.173,0.449-1.942,0.449s-1.422-0.151-1.942-0.449
			c-0.492-0.285-0.742-0.558-0.742-0.811c0-0.254,0.25-0.528,0.742-0.812c0.519-0.298,1.171-0.449,1.942-0.449
			c0.77,0,1.423,0.151,1.942,0.449c0.492,0.285,0.741,0.558,0.741,0.812C73.445,41.017,73.196,41.29,72.704,41.575z M73.445,27.332
			v2.337l-9.619,2.129v-2.338L73.445,27.332z M61.366,42.986c-0.518,0.298-1.171,0.449-1.941,0.449
			c-0.771,0-1.424-0.151-1.942-0.449c-0.484-0.279-0.74-0.56-0.74-0.812c0-0.251,0.256-0.53,0.74-0.81
			c0.52-0.298,1.173-0.449,1.942-0.449c0.769,0,1.422,0.151,1.941,0.449c0.485,0.28,0.742,0.56,0.742,0.81
			C62.107,42.425,61.851,42.706,61.366,42.986z"/>
	</g>
</g>
</svg>
