<?xml version="1.0" encoding="utf-8"?>
<!-- Generator: Adobe Illustrator 16.0.4, SVG Export Plug-In . SVG Version: 6.00 Build 0)  -->
<!DOCTYPE svg PUBLIC "-//W3C//DTD SVG 1.1//EN" "http://www.w3.org/Graphics/SVG/1.1/DTD/svg11.dtd">
<svg version="1.1" id="Layer_1" xmlns="http://www.w3.org/2000/svg" xmlns:xlink="http://www.w3.org/1999/xlink" x="0px" y="0px"
	 width="53px" height="70px" viewBox="0 0 53 70" enable-background="new 0 0 53 70" xml:space="preserve">
<g>
	<path fill="#33B6E4" d="M49.832,7.161H38.548V6.469c0-1.562-1.272-2.833-2.837-2.833h-1.749l-0.042-0.2
		C33.5,1.445,31.701,0,29.644,0h-6.288c-2.057,0-3.856,1.445-4.277,3.436l-0.042,0.2h-1.859c-1.564,0-2.836,1.271-2.836,2.833v0.692
		H3.057C1.314,7.161,0,8.474,0,10.214v56.733C0,68.688,1.314,70,3.057,70h46.885C51.686,70,53,68.688,53,66.947V10.214
		C52.896,8.451,51.563,7.161,49.832,7.161z M16.485,6.469c0-0.252,0.221-0.473,0.472-0.473h4.05V4.485
		c0-1.232,1.004-2.235,2.238-2.235h6.288c1.234,0,2.239,1.002,2.239,2.235v1.511h4.049c0.248,0,0.474,0.225,0.474,0.473v4.075
		c0,0.248-0.226,0.473-0.474,0.473H17.068c-0.249,0-0.474-0.225-0.474-0.473V6.72h-0.109V6.469z M50.857,66.098h-0.129
		c-0.132,0.905-0.958,1.651-1.889,1.651H4.161c-1.016,0-1.907-0.889-1.907-1.903V11.315c0-1.015,0.891-1.904,1.907-1.904h10.181
		v1.133c0,1.562,1.272,2.833,2.836,2.833h18.754c1.564,0,2.837-1.271,2.837-2.833V9.411H48.95c1.016,0,1.907,0.89,1.907,1.904
		V66.098z"/>
	<path fill="#33B6E4" d="M42.426,18.101h-8.547c-0.579,0-1.049,0.47-1.049,1.047c0,0.578,0.47,1.048,1.049,1.048h8.547
		c0.579,0,1.049-0.47,1.049-1.048C43.475,18.571,43.004,18.101,42.426,18.101z"/>
	<path fill="#33B6E4" d="M18.5,18.101h-2.972c-0.579,0-1.049,0.47-1.049,1.047c0,0.578,0.471,1.048,1.049,1.048H18.5
		c0.579,0,1.048-0.47,1.048-1.048C19.549,18.571,19.079,18.101,18.5,18.101z"/>
	<path fill="#33B6E4" d="M29.163,18.101H23.34c-0.579,0-1.049,0.47-1.049,1.047c0,0.578,0.47,1.048,1.049,1.048h5.823
		c0.578,0,1.049-0.47,1.049-1.048C30.212,18.571,29.741,18.101,29.163,18.101z"/>
	<circle fill="#33B6E4" cx="10.698" cy="19.148" r="1.171"/>
	<path fill="#33B6E4" d="M42.426,23.258h-8.547c-0.579,0-1.049,0.47-1.049,1.048c0,0.578,0.47,1.048,1.049,1.048h8.547
		c0.579,0,1.049-0.47,1.049-1.048C43.475,23.728,43.004,23.258,42.426,23.258z"/>
	<path fill="#33B6E4" d="M18.5,23.258h-2.972c-0.579,0-1.049,0.47-1.049,1.048c0,0.578,0.471,1.048,1.049,1.048H18.5
		c0.579,0,1.048-0.47,1.048-1.048C19.549,23.728,19.079,23.258,18.5,23.258z"/>
	<circle fill="#33B6E4" cx="10.698" cy="24.305" r="1.172"/>
	<path fill="#33B6E4" d="M29.163,23.258H23.34c-0.579,0-1.049,0.47-1.049,1.048c0,0.578,0.47,1.048,1.049,1.048h5.823
		c0.578,0,1.049-0.47,1.049-1.048C30.212,23.728,29.741,23.258,29.163,23.258z"/>
	<path fill="#33B6E4" d="M42.426,28.415h-8.547c-0.579,0-1.049,0.47-1.049,1.047c0,0.577,0.47,1.047,1.049,1.047h8.547
		c0.579,0,1.049-0.47,1.049-1.047C43.475,28.885,43.004,28.415,42.426,28.415z"/>
	<circle fill="#33B6E4" cx="10.698" cy="29.462" r="1.172"/>
	<path fill="#33B6E4" d="M29.163,28.415H23.34c-0.579,0-1.049,0.47-1.049,1.047c0,0.577,0.47,1.047,1.049,1.047h5.823
		c0.578,0,1.049-0.47,1.049-1.047C30.212,28.885,29.741,28.415,29.163,28.415z"/>
	<path fill="#33B6E4" d="M18.5,28.415h-2.972c-0.579,0-1.049,0.47-1.049,1.047c0,0.577,0.471,1.047,1.049,1.047H18.5
		c0.579,0,1.048-0.47,1.048-1.047C19.549,28.885,19.079,28.415,18.5,28.415z"/>
	<path fill="#33B6E4" d="M18.5,33.572h-2.972c-0.579,0-1.049,0.47-1.049,1.047c0,0.578,0.471,1.048,1.049,1.048H18.5
		c0.579,0,1.048-0.47,1.048-1.048C19.549,34.042,19.079,33.572,18.5,33.572z"/>
	<circle fill="#33B6E4" cx="10.698" cy="34.618" r="1.172"/>
	<path fill="#33B6E4" d="M29.163,33.572H23.34c-0.579,0-1.049,0.47-1.049,1.047c0,0.578,0.47,1.048,1.049,1.048h5.823
		c0.578,0,1.049-0.47,1.049-1.048C30.212,34.042,29.741,33.572,29.163,33.572z"/>
	<path fill="#33B6E4" d="M42.426,33.572h-8.547c-0.579,0-1.049,0.47-1.049,1.047c0,0.578,0.47,1.048,1.049,1.048h8.547
		c0.579,0,1.049-0.47,1.049-1.048C43.475,34.042,43.004,33.572,42.426,33.572z"/>
	<path fill="#33B6E4" d="M42.426,38.729h-8.547c-0.579,0-1.049,0.469-1.049,1.047c0,0.577,0.47,1.047,1.049,1.047h8.547
		c0.579,0,1.049-0.47,1.049-1.047C43.475,39.198,43.004,38.729,42.426,38.729z"/>
	<path fill="#33B6E4" d="M18.5,38.729h-2.972c-0.579,0-1.049,0.469-1.049,1.047c0,0.577,0.471,1.047,1.049,1.047H18.5
		c0.579,0,1.048-0.47,1.048-1.047C19.549,39.198,19.079,38.729,18.5,38.729z"/>
	<circle fill="#33B6E4" cx="10.698" cy="39.776" r="1.172"/>
	<path fill="#33B6E4" d="M29.163,38.729H23.34c-0.579,0-1.049,0.469-1.049,1.047c0,0.577,0.47,1.047,1.049,1.047h5.823
		c0.578,0,1.049-0.47,1.049-1.047C30.212,39.198,29.741,38.729,29.163,38.729z"/>
	<path fill="#33B6E4" d="M42.426,43.885h-8.547c-0.579,0-1.049,0.47-1.049,1.048c0,0.578,0.47,1.046,1.049,1.046h8.547
		c0.579,0,1.049-0.469,1.049-1.046C43.475,44.355,43.004,43.885,42.426,43.885z"/>
	<path fill="#33B6E4" d="M18.5,43.885h-2.972c-0.579,0-1.049,0.47-1.049,1.048c0,0.578,0.471,1.046,1.049,1.046H18.5
		c0.579,0,1.048-0.469,1.048-1.046C19.549,44.355,19.079,43.885,18.5,43.885z"/>
	<path fill="#33B6E4" d="M29.163,43.885H23.34c-0.579,0-1.049,0.47-1.049,1.048c0,0.578,0.47,1.046,1.049,1.046h5.823
		c0.578,0,1.049-0.469,1.049-1.046C30.212,44.355,29.741,43.885,29.163,43.885z"/>
	<circle fill="#33B6E4" cx="10.698" cy="44.932" r="1.172"/>
	<circle fill="#33B6E4" cx="10.698" cy="50.089" r="1.172"/>
	<path fill="#33B6E4" d="M29.163,49.042H23.34c-0.579,0-1.049,0.47-1.049,1.047c0,0.578,0.47,1.049,1.049,1.049h5.823
		c0.578,0,1.049-0.471,1.049-1.049C30.212,49.511,29.741,49.042,29.163,49.042z"/>
	<path fill="#33B6E4" d="M18.5,49.042h-2.972c-0.579,0-1.049,0.47-1.049,1.047c0,0.578,0.471,1.049,1.049,1.049H18.5
		c0.579,0,1.048-0.471,1.048-1.049C19.549,49.511,19.079,49.042,18.5,49.042z"/>
	<path fill="#33B6E4" d="M42.426,49.042h-8.547c-0.579,0-1.049,0.47-1.049,1.047c0,0.578,0.47,1.049,1.049,1.049h8.547
		c0.579,0,1.049-0.471,1.049-1.049C43.475,49.511,43.004,49.042,42.426,49.042z"/>
	<path fill="#33B6E4" d="M29.135,54.219h-5.822c-0.578,0-1.049,0.47-1.049,1.047c0,0.577,0.471,1.047,1.049,1.047h5.822
		c0.579,0,1.049-0.47,1.049-1.047C30.185,54.689,29.714,54.219,29.135,54.219z"/>
	<path fill="#33B6E4" d="M42.399,54.219h-8.547c-0.578,0-1.049,0.47-1.049,1.047c0,0.577,0.471,1.047,1.049,1.047h8.547
		c0.578,0,1.048-0.47,1.048-1.047C43.447,54.689,42.977,54.219,42.399,54.219z"/>
	<path fill="#33B6E4" d="M18.473,54.219h-2.971c-0.578,0-1.049,0.47-1.049,1.047c0,0.577,0.471,1.047,1.049,1.047h2.971
		c0.579,0,1.049-0.47,1.049-1.047C19.522,54.689,19.051,54.219,18.473,54.219z"/>
	<circle fill="#33B6E4" cx="10.671" cy="55.266" r="1.172"/>
	<path fill="#33B6E4" d="M29.135,59.376h-5.822c-0.578,0-1.049,0.469-1.049,1.047c0,0.577,0.471,1.047,1.049,1.047h5.822
		c0.579,0,1.049-0.47,1.049-1.047C30.185,59.845,29.714,59.376,29.135,59.376z"/>
	<path fill="#33B6E4" d="M18.473,59.376h-2.971c-0.578,0-1.049,0.469-1.049,1.047c0,0.577,0.471,1.047,1.049,1.047h2.971
		c0.579,0,1.049-0.47,1.049-1.047C19.522,59.845,19.051,59.376,18.473,59.376z"/>
	<circle fill="#33B6E4" cx="10.671" cy="60.423" r="1.172"/>
	<path fill="#33B6E4" d="M42.399,59.376h-8.547c-0.578,0-1.049,0.469-1.049,1.047c0,0.577,0.471,1.047,1.049,1.047h8.547
		c0.578,0,1.048-0.47,1.048-1.047C43.447,59.845,42.977,59.376,42.399,59.376z"/>
</g>
</svg>
