<svg xmlns="http://www.w3.org/2000/svg" width="100" height="100">
  <path d="M.045 32.548l6 18.66c.075.246.247.442.472.56.14.075.292.106.444.106.1 0 .2-.016.296-.04l6.837-2.17c.51-.155.79-.695.626-1.198l-1.195-3.722 15.245-4.82.172.527c.127.407.51.67.918.67.094 0 .193-.013.294-.05l6.683-2.105c-1.513 1.754-2.46 3.998-2.46 6.48 0 3.285 1.623 6.178 4.09 8.006L20.827 98.09H15.45c-.533 0-.967.432-.967.957 0 .53.434.956.966.956h58.097c.53 0 .962-.424.962-.955 0-.525-.43-.957-.963-.957H70.44c-.006-.113-.027-.228-.076-.336l-19.6-44.487c2.33-1.836 3.858-4.638 3.858-7.817 0-4.675-3.257-8.586-7.626-9.693l8.688-2.744.44 1.368c.128.402.507.666.917.666.095 0 .196-.015.29-.048l20.963-6.627 1.343 4.17c.078.245.25.444.474.562.14.072.29.105.442.105.098 0 .196-.015.293-.046l7.48-2.366c.507-.158.79-.695.625-1.198L79.655.668c-.078-.244-.247-.442-.478-.56-.225-.118-.49-.14-.733-.063l-7.487 2.367c-.243.074-.445.246-.563.473-.12.227-.14.484-.06.73l1.34 4.17-20.96 6.62c-.244.077-.446.25-.563.476-.117.23-.136.487-.06.73l.438 1.367-25.525 8.07c-.51.16-.79.7-.628 1.203l.172.526L9.297 31.6l-.576-1.79c-.16-.5-.702-.78-1.207-.617L.675 31.348c-.245.08-.447.247-.568.477-.114.222-.14.487-.062.723m79.793-5.667v-.004l-6.033-18.76-.002-.006-1.338-4.167 5.646-1.785 8.71 27.107-5.64 1.782-1.34-4.166M52.22 15.94l20.04-6.334 5.448 16.942-20.04 6.333-5.448-16.94M68.408 98.09H45.463V55.382c1.31-.125 2.54-.488 3.657-1.066l19.288 43.77m-24.877-52.2v7.578c-.95-.113-1.855-.377-2.68-.79l2.68-6.79m1.934.135l2.886 6.547c-.88.47-1.854.777-2.887.896V46.02m-5.32 8.442c1.046.497 2.185.803 3.39.916v42.71H22.9L40.142 54.46m-3.84-9.02c0-4.48 3.68-8.122 8.2-8.122 4.513 0 8.187 3.642 8.187 8.12 0 2.395-1.068 4.523-2.73 6.012l-4.577-10.387v-.002l-.003-.01c-.015-.03-.04-.05-.058-.077-.045-.075-.088-.155-.153-.223-.05-.045-.11-.076-.168-.11-.047-.026-.09-.066-.143-.088-.09-.034-.185-.045-.28-.055-.03 0-.056-.02-.084-.02h-.004c-.042 0-.082.02-.128.028-.424-.053-.847.163-1.01.582l-4.15 10.497c-1.758-1.488-2.9-3.675-2.902-6.146m-5.816-6.478l-3.98-12.38 24.606-7.784 3.98 12.388-24.605 7.778m-17.55 3.96l-3.053-9.505L25.13 28.6l3.053 9.5-15.245 4.82M2.174 32.883l5-1.582.517 1.613c.008.064 0 .124.025.188l3.636 11.327c.023.07.068.12.106.186l1.134 3.524-5.003 1.58L2.174 32.88v.003z" fill="#33B6E4"/>
</svg>
