<?xml version="1.0" encoding="utf-8"?>
<!-- Generator: Adobe Illustrator 16.0.4, SVG Export Plug-In . SVG Version: 6.00 Build 0)  -->
<!DOCTYPE svg PUBLIC "-//W3C//DTD SVG 1.1//EN" "http://www.w3.org/Graphics/SVG/1.1/DTD/svg11.dtd">
<svg version="1.1" id="Layer_1" xmlns="http://www.w3.org/2000/svg" xmlns:xlink="http://www.w3.org/1999/xlink" x="0px" y="0px"
	 width="70px" height="60px" viewBox="0 0 70 60" enable-background="new 0 0 70 60" xml:space="preserve">
<path fill="#33B6E4" stroke="#33B6E4" stroke-width="0.9868" stroke-miterlimit="10" d="M69.686,19.426L35.396,0.107
	c-0.221-0.144-0.516-0.144-0.737,0L0.369,19.426C0.147,19.569,0,19.785,0,20c0,0.217,0.147,0.502,0.295,0.646l7.448,4.812v22.406
	C6.342,48.223,5.31,49.443,5.31,50.88c0,1.723,1.475,3.159,3.17,3.159c1.77,0,3.171-1.437,3.171-3.159
	c0-1.508-1.032-2.729-2.433-3.016V26.391l4.498,2.944v16.662c0,0.215,0.147,0.43,0.295,0.574l20.5,13.285
	C34.659,59.929,34.806,60,34.954,60c0.147,0,0.295-0.071,0.442-0.144l20.5-13.285c0.222-0.145,0.295-0.359,0.295-0.574V29.335
	l13.495-8.688c0.222-0.145,0.369-0.359,0.295-0.646C70.054,19.785,69.907,19.569,69.686,19.426z M10.25,50.951
	c0,0.935-0.811,1.725-1.696,1.725c-0.958,0-1.696-0.79-1.696-1.725c0-0.933,0.811-1.651,1.696-1.651
	C9.512,49.228,10.25,50.019,10.25,50.951z M54.79,45.638L35.027,58.421L15.265,45.638V30.27l19.32,12.496
	c0.147,0.07,0.295,0.144,0.442,0.144s0.295-0.073,0.442-0.144L54.79,30.27V45.638z M35.027,41.328L9.808,25.027l22.196-12.495
	c0.369-0.217,0.442-0.647,0.295-1.006c-0.221-0.358-0.664-0.431-1.033-0.287L8.407,24.094L2.139,20L35.027,1.615l32.889,18.457
	L35.027,41.328z"/>
</svg>
