<?xml version="1.0" encoding="utf-8"?>
<!-- Generator: Adobe Illustrator 16.0.4, SVG Export Plug-In . SVG Version: 6.00 Build 0)  -->
<!DOCTYPE svg PUBLIC "-//W3C//DTD SVG 1.1//EN" "http://www.w3.org/Graphics/SVG/1.1/DTD/svg11.dtd">
<svg version="1.1" id="Layer_1" xmlns="http://www.w3.org/2000/svg" xmlns:xlink="http://www.w3.org/1999/xlink" x="0px" y="0px"
	 width="60px" height="60px" viewBox="0 0 60 60" enable-background="new 0 0 60 60" xml:space="preserve">
<g>
	<path fill="#33B6E4" stroke="#33B6E4" stroke-width="0.5" stroke-miterlimit="10" d="M59.25,0H0.75C0.336,0,0,0.335,0,0.75v58.5
		C0,59.663,0.336,60,0.75,60h58.5c0.414,0,0.75-0.337,0.75-0.75V0.75C60,0.335,59.664,0,59.25,0z M58.5,1.5v33.903h-3.762v-0.882
		c0-1.641-1.334-2.975-2.975-2.975h-0.425v-0.338c0-0.785-0.403-1.478-1.013-1.883c1.878-1.673,2.995-4.098,2.995-6.657
		c0-3.539-2.119-6.749-5.328-8.158l0.15-2.653c0.739-0.237,1.275-0.931,1.275-1.749c0-1.013-0.824-1.837-1.836-1.837h-6.338
		c-1.012,0-1.837,0.824-1.837,1.837c0,0.817,0.536,1.511,1.275,1.749l0.151,2.653c-3.208,1.409-5.328,4.621-5.328,8.158
		c0,2.56,1.117,4.984,2.996,6.657c-0.61,0.405-1.013,1.097-1.013,1.883v0.338h-0.425c-1.641,0-2.975,1.334-2.975,2.975v0.882h-8.175
		v-0.882c0-1.641-1.334-2.975-2.976-2.975h-0.99c-0.004-0.03,0.003-0.059-0.003-0.088l-0.66-2.789
		c2.493-1.788,3.967-4.639,3.967-7.725c0-3.343-1.739-6.409-4.575-8.133c0.028-0.212,0.042-0.422,0.042-0.632
		c0-0.829-0.208-1.644-0.605-2.373l0.553-2.192c0.931-0.265,1.616-1.124,1.616-2.138V4.65c0-0.414-0.336-0.75-0.75-0.75H9.943
		c-0.414,0-0.75,0.335-0.75,0.75v0.827c0,1.015,0.685,1.873,1.616,2.138l0.552,2.191c-0.396,0.729-0.605,1.544-0.605,2.373
		c0,0.209,0.014,0.42,0.042,0.633c-2.834,1.723-4.574,4.788-4.574,8.133c0,3.086,1.473,5.937,3.967,7.725l-0.66,2.789
		c-0.007,0.029,0.001,0.058-0.003,0.087H8.237c-1.641,0-2.975,1.334-2.975,2.976v0.881H1.5V1.5H58.5z M40.665,29.059
		c-2.257-1.328-3.658-3.776-3.658-6.389c0-3.101,1.954-5.896,4.864-6.959c0.311-0.114,0.51-0.417,0.491-0.748l-0.217-3.809
		c-0.022-0.396-0.351-0.708-0.749-0.708h-0.152c-0.186,0-0.337-0.15-0.337-0.336c0-0.186,0.151-0.337,0.337-0.337h6.338
		c0.186,0,0.336,0.151,0.336,0.337c0,0.186-0.151,0.336-0.336,0.336H47.43c-0.398,0-0.726,0.312-0.75,0.708l-0.217,3.809
		c-0.019,0.33,0.181,0.634,0.492,0.748c2.909,1.063,4.864,3.859,4.864,6.959c0,2.612-1.402,5.061-3.659,6.389
		c-0.292,0.171-0.433,0.517-0.344,0.843c0.09,0.327,0.386,0.554,0.724,0.554h0.542c0.417,0,0.754,0.34,0.754,0.754v0.339h-10.85
		v-0.339c0-0.416,0.339-0.754,0.755-0.754h0.542c0.338,0,0.634-0.227,0.724-0.554C41.098,29.575,40.957,29.229,40.665,29.059z
		 M51.764,33.047c0.813,0,1.475,0.661,1.475,1.475v0.882H35.588v-0.882c0-0.812,0.662-1.475,1.476-1.475H51.764z M19.332,6.767
		L18.724,9.18l-5.976-0.005l-0.606-2.406C12.058,6.437,11.758,6.2,11.414,6.2c-0.397,0-0.722-0.323-0.722-0.722V5.402H20.78v0.076
		c0,0.398-0.323,0.722-0.721,0.722C19.716,6.199,19.416,6.434,19.332,6.767z M11.987,13.863c0.304-0.161,0.458-0.51,0.375-0.843
		c-0.072-0.29-0.106-0.564-0.106-0.839c0-0.524,0.124-1.036,0.353-1.508l6.259,0.007c0.227,0.469,0.35,0.979,0.35,1.501
		c0,0.274-0.035,0.548-0.107,0.84c-0.083,0.333,0.073,0.681,0.377,0.843c2.628,1.396,4.262,4.109,4.262,7.082
		c0,2.685-1.331,5.149-3.558,6.645h-8.91c-2.227-1.495-3.557-3.96-3.557-6.645C7.725,17.973,9.358,15.259,11.987,13.863z
		 M11.633,29.09h8.208l0.582,2.457h-9.372L11.633,29.09z M22.937,33.047c0.813,0,1.476,0.661,1.476,1.475v0.882H6.762v-0.882
		c0-0.812,0.661-1.475,1.475-1.475H22.937z M1.5,58.5V36.903h57V58.5H1.5z"/>
	<path fill="#33B6E4" stroke="#33B6E4" stroke-width="0.5" stroke-miterlimit="10" d="M30.099,14.28
		c0.146,0.146,0.338,0.22,0.53,0.22c0.192,0,0.384-0.073,0.53-0.22c0.293-0.293,0.293-0.768,0-1.062l-3.141-3.141
		c-0.293-0.292-0.768-0.292-1.061,0c-0.293,0.293-0.293,0.767,0,1.061L30.099,14.28z"/>
	<path fill="#33B6E4" stroke="#33B6E4" stroke-width="0.5" stroke-miterlimit="10" d="M34.044,13.317
		c0.146,0.146,0.338,0.22,0.53,0.22s0.384-0.074,0.53-0.22c0.293-0.294,0.293-0.768,0-1.06l-5.909-5.911
		c-0.293-0.294-0.767-0.294-1.061,0c-0.293,0.293-0.293,0.768,0,1.061L34.044,13.317z"/>
	<path fill="#33B6E4" stroke="#33B6E4" stroke-width="0.5" stroke-miterlimit="10" d="M21.703,40.625h-12
		c-0.414,0-0.75,0.336-0.75,0.75v3.75c0,0.413,0.336,0.75,0.75,0.75h12c0.414,0,0.75-0.336,0.75-0.75v-3.75
		C22.453,40.96,22.117,40.625,21.703,40.625z M20.953,44.375h-10.5v-2.25h10.5V44.375z"/>
	<path fill="#33B6E4" stroke="#33B6E4" stroke-width="0.5" stroke-miterlimit="10" d="M50.413,40.625h-12
		c-0.413,0-0.75,0.336-0.75,0.75v3.75c0,0.413,0.337,0.75,0.75,0.75h12c0.415,0,0.75-0.336,0.75-0.75v-3.75
		C51.163,40.96,50.828,40.625,50.413,40.625z M49.663,44.375h-10.5v-2.25h10.5V44.375z"/>
</g>
</svg>
