<svg xmlns="http://www.w3.org/2000/svg" width="126" height="100">
  <path d="M86.01 43.187C82.613 32.022 74.86 22.697 64.5 17.32c-8.265-4.403-17.72-6.05-26.986-4.704l-.28.04L33.517.667c-.177-.453-.644-.723-1.125-.65C17.216 4.393 5.67 16.75 2.332 32.187c-.047.26.01.525.16.74.133.196.34.328.575.365l11.802 2.682v4.875c0 1.668 1.708 2.79 3.302 2.79.756.054 1.5-.222 2.038-.757.537-.535.817-1.276.766-2.033v-3.533l3.79.904v3.75c0 1.668 1.708 2.79 3.305 2.79.7-.002 1.377-.24 1.924-.674.62-.52.948-1.31.88-2.116V39.56l7.602 1.758 3.982 12.948-40.943-9.78-.184.91C-.63 53.15-.42 61.294 1.948 68.933c5.676 18.51 22.796 31.126 42.157 31.066 4.386 0 8.746-.67 12.93-1.98 23.14-7.145 36.11-31.69 28.977-54.83M38.295 14.334c8.727-1.202 17.61.38 25.385 4.525 2.932 1.576 5.682 3.47 8.2 5.65l.26.22-3.456 3.73-.24-.212c-2.158-1.884-4.534-3.502-7.077-4.82-6.622-3.518-14.16-4.94-21.61-4.078l-.27.032-1.576-4.992.384-.055m6.83 42.393l32.955 7.944-.08.32c-.67 2.583-1.645 5.078-2.91 7.43-4.145 7.887-11.163 13.88-19.603 16.74l-.32.11-10.043-32.544m8.164 33.103l-.327.09c-2.97.803-6.036 1.21-9.115 1.212-8.497-.012-16.707-3.08-23.13-8.64l-.26-.224L43.503 57.79l9.786 32.04M46.11 54.998L68.777 30.9l.24.237c4.036 4.047 7.03 9.014 8.725 14.473 1.612 5.475 1.916 11.253.887 16.867l-.063.34-32.457-7.82M9.513 32.755l-5.146-1.14.08-.324C7.966 17.51 18.312 6.5 31.848 2.13l.315-.105 1.582 4.86-.307.104C21.743 10.972 12.802 20.52 9.595 32.45l-.082.303M37.27 39.17l-6.397-1.43v-.76c.02-.25-.072-.497-.25-.674-.178-.177-.425-.267-.675-.245-.28.034-.54.165-.735.37l-.08.143c-.064.08-.102.18-.11.282v4.987c.024.263-.055.525-.222.73-.197.18-.465.262-.73.223-.652.074-1.265-.326-1.46-.953v-8.23c0-.51-.412-.922-.922-.922s-.923.413-.923.923v2.66l-3.79-.906V33.36c.02-.25-.07-.495-.25-.672-.177-.176-.423-.266-.673-.245-.28.034-.538.164-.734.367-.1.168-.166.356-.19.55v7.485c.023.263-.056.524-.223.73-.2.176-.468.257-.733.22-.65.074-1.262-.325-1.457-.95V30.248c0-.51-.413-.923-.923-.923s-.923.413-.923.923v3.77l-3.62-.78.09-.333C14.383 21.65 22.82 12.64 33.85 8.865l.317-.11 4.113 12.79 5.928 19.114-6.94-1.49m3.22 2.594l4.696 1.134.175-.01c.245.008.482-.095.644-.28.196-.27.257-.615.164-.935l-1.865-5.834.384-.057c.707-.1 1.23-.708 1.22-1.42.014-.382-.133-.752-.403-1.02-.27-.27-.64-.414-1.022-.4-.1.006-.2.024-.296.053-.148.042-.3.066-.456.07h-.242l-3.696-11.955.394-.043c6.94-.698 13.934.658 20.11 3.9C62.7 26.213 64.948 27.734 67 29.5l.255.222-.232.247L44.333 54.2 40.49 41.764M9.456 48.51l.07-.33 32.947 7.942-23.29 24.848-.24-.24c-8.44-8.426-12.014-20.566-9.487-32.22m4.73 37.21c-4.994-4.804-8.65-10.826-10.61-17.472-2.124-6.926-2.428-14.283-.884-21.36l.068-.324 5.03 1.144-.07.317c-1.368 6.18-1.11 12.608.744 18.66 1.79 5.735 4.944 10.95 9.19 15.203l.218.218-3.44 3.854-.246-.24M55.22 96.4c-10.385 2.985-21.525 1.814-31.062-3.267-2.934-1.575-5.686-3.47-8.203-5.652l-.266-.224 3.59-3.718.234.204c9.333 8.207 22.183 11.137 34.15 7.787l.303-.082 1.58 4.858-.327.095m29.667-29.78c-3.71 13.67-13.982 24.6-27.398 29.15l-.325.11-1.437-4.865.295-.103c8.875-3.037 16.28-9.304 20.743-17.553 1.32-2.517 2.36-5.17 3.104-7.91l.083-.304 5.024 1.143-.09.33m.444-2.186l-5.024-1.144.06-.31c1.16-5.922.82-12.04-.994-17.797-1.823-5.76-4.972-11.01-9.193-15.33l-.217-.224 3.446-3.72.24.234c4.926 4.857 8.57 10.86 10.608 17.47 2.055 6.63 2.446 13.667 1.138 20.486l-.065.334z" fill="#FF0037"/>
  <path d="M23.23 27.503c0 .99-.806 1.792-1.8 1.792-.995 0-1.8-.803-1.8-1.792 0-.99.805-1.792 1.8-1.792.994 0 1.8.803 1.8 1.793z" fill-rule="evenodd" fill="#FF0037"/>
  <path d="M36.338 31.448c-.348-.004-.673.176-.854.475-.21.22-.325.514-.32.818.02.537.368 1.005.876 1.177.09.016.176.047.255.09l.042.027c.315.015.622-.102.846-.325.224-.223.343-.53.33-.844.063-.35-.032-.71-.258-.982-.226-.274-.562-.433-.917-.436z" fill="#FF0037"/>
  <path d="M33.38 20.192c-.217-1.6-1.42-2.89-3-3.217-.377-.15-.777-.232-1.183-.244-2.3 0-4.162 1.864-4.162 4.163 0 2.298 1.863 4.162 4.162 4.162 1.254-.01 2.442-.56 3.262-1.51.32-.448.597-.926.828-1.426.133-.397.205-.81.215-1.227.018-.205-.013-.412-.09-.602l-.033-.098z" fill="#FF0037"/>
  <path d="M54.002 34.907c1.952-.01 3.527-1.597 3.52-3.55-.005-1.95-1.59-3.528-3.542-3.525-1.95.003-3.532 1.586-3.532 3.538.008 1.957 1.598 3.538 3.554 3.537z" fill="#FF0037"/>
  <path d="M65.28 51.15c-1.47.006-2.656 1.202-2.652 2.67.005 1.47 1.2 2.66 2.67 2.657 1.468-.003 2.658-1.195 2.658-2.664-.005-1.474-1.203-2.666-2.677-2.664z" fill="#FF0037"/>
  <path d="M20.052 70.82c2.365-.013 4.274-1.937 4.267-4.302-.01-2.365-1.93-4.277-4.296-4.273-2.364.004-4.28 1.922-4.28 4.287.01 2.372 1.936 4.29 4.308 4.287z" fill="#FF0037"/>
  <path d="M62.945 79.253c0 1.196-.974 2.166-2.177 2.166-1.202 0-2.177-.97-2.177-2.167 0-1.197.976-2.166 2.178-2.166 1.203 0 2.177.97 2.177 2.166z" fill-rule="evenodd" fill="#FF0037"/>
  <g>
    <path d="M67.91 36.808c-2.847.013-5.145 2.33-5.137 5.176.01 2.846 2.322 5.148 5.168 5.144 2.848-.005 5.153-2.313 5.153-5.16-.01-2.855-2.33-5.164-5.184-5.16z" fill="#FF0037"/>
  </g>
  <g>
    <path d="M57.555 51.57c0 1.06-.86 1.917-1.925 1.917-1.063 0-1.925-.858-1.925-1.917 0-1.06.862-1.917 1.925-1.917 1.063 0 1.925.858 1.925 1.917z" fill-rule="evenodd" fill="#FF0037"/>
  </g>
  <g>
    <path d="M41.897 67.656c0 .783-.638 1.42-1.425 1.42s-1.425-.636-1.425-1.42c0-.784.638-1.42 1.425-1.42s1.425.636 1.425 1.42z" fill-rule="evenodd" fill="#FF0037"/>
  </g>
  <g>
    <path d="M35.585 72.472c-1.54.006-2.783 1.26-2.78 2.8.006 1.54 1.258 2.785 2.798 2.782 1.54-.003 2.786-1.253 2.785-2.793-.005-1.543-1.26-2.79-2.803-2.788z" fill="#FF0037"/>
  </g>
  <g>
    <path d="M43.48 87.78c2.295-.012 4.15-1.88 4.142-4.176-.006-2.296-1.87-4.153-4.167-4.15-2.296.003-4.156 1.864-4.158 4.16.008 2.304 1.88 4.167 4.182 4.165z" fill="#FF0037"/>
  </g>
  <g>
    <path d="M31.374 59.052c0 .783-.638 1.418-1.426 1.418-.787 0-1.426-.635-1.426-1.418 0-.783.64-1.418 1.426-1.418.788 0 1.426.635 1.426 1.418z" fill-rule="evenodd" fill="#FF0037"/>
  </g>
  <g>
    <path d="M16.09 56.683c0 .92-.75 1.668-1.676 1.668-.925 0-1.675-.746-1.675-1.667 0-.92.75-1.668 1.674-1.668.925 0 1.675.747 1.675 1.668z" fill-rule="evenodd" fill="#FF0037"/>
  </g>
  <g>
    <path d="M61.943 67.657c.01-1.694-1.003-3.226-2.565-3.88-1.562-.655-3.364-.303-4.565.89-1.2 1.195-1.564 2.995-.918 4.56.646 1.567 2.172 2.588 3.865 2.59 2.302.002 4.173-1.858 4.183-4.16z" fill="#FF0037"/>
  </g>
</svg>
