<?xml version="1.0" encoding="utf-8"?>
<!-- Generator: Adobe Illustrator 16.0.4, SVG Export Plug-In . SVG Version: 6.00 Build 0)  -->
<!DOCTYPE svg PUBLIC "-//W3C//DTD SVG 1.1//EN" "http://www.w3.org/Graphics/SVG/1.1/DTD/svg11.dtd">
<svg version="1.1" id="Layer_1" xmlns="http://www.w3.org/2000/svg" xmlns:xlink="http://www.w3.org/1999/xlink" x="0px" y="0px"
	 width="126px" height="100px" viewBox="0 0 126 100" enable-background="new 0 0 126 100" xml:space="preserve">
<g>
	<path fill="#222222" d="M109.893,86.055H95.289L95.235,84.1V65.815H82.883l13.905-21.774l-1.458-2.443l-8.291,11.387l-4.26-3.1
		l-4.319,3.144l-5.677-8.432l-2.293,7.576l18.594,33.881H73.87L63.006,66.252L52.138,86.055h-15.22l18.595-33.882l-2.288-7.576
		l-5.687,8.432l-4.316-3.144l-4.257,3.101l-8.291-11.389l-1.461,2.444L43.12,65.815H30.771v20.239H16.174l-0.058-1.951l0-18.288
		H3.768l13.906-21.774l-1.462-2.445L7.925,52.985L0,47.226l13.754-18.939h4.005l-3.474-6.02l4.796-8.321h8.715l4.805,8.32
		l-3.477,6.02h3.977l0.61,0.799l9.509,13.096l10.09-13.895h4.014l-3.477-6.02l4.803-8.32h8.71l4.805,8.32l-3.479,6.02h3.979
		l0.608,0.8l9.505,13.095l10.093-13.895h4.01l-3.476-6.02l4.803-8.32h8.708l4.804,8.32l-3.477,6.02h3.976l0.611,0.797L126,47.226
		l-7.911,5.76l-8.292-11.387l-1.459,2.443l13.901,21.774h-12.347V86.055z M97.192,84.099h10.743V63.859h10.732l-12.631-19.784
		l3.597-6.023l8.886,12.2l4.75-3.458l-12.015-16.551h-5.372v-1.777l3.578-6.199l-3.674-6.364h-6.448l-3.674,6.364l3.579,6.199v1.777
		H93.87L82.779,45.511L71.695,30.243h-5.372v-1.777l3.582-6.199l-3.673-6.364H59.78l-3.672,6.364l3.581,6.199v1.777h-5.38
		L43.222,45.511L32.135,30.243h-5.374v-1.777l3.581-6.199l-3.674-6.364h-6.457l-3.667,6.363l3.578,6.198v1.779h-5.37L2.733,46.793
		l4.761,3.459l8.879-12.203l3.6,6.025L7.339,63.859h10.732l0.001,20.239h10.742V63.859h10.734L26.915,44.075l3.6-6.022l8.881,12.199
		l3.827-2.787l3.828,2.79l6.857-10.169l3.715,12.311L40.223,84.099h10.756l12.027-21.914l12.021,21.914h10.752L68.379,52.396
		l3.724-12.311l6.847,10.169l3.83-2.789l3.829,2.787l8.885-12.2l3.595,6.023L86.454,63.859h10.737L97.192,84.099z"/>
</g>
</svg>
