<?xml version="1.0" encoding="utf-8"?>
<!-- Generator: Adobe Illustrator 16.0.4, SVG Export Plug-In . SVG Version: 6.00 Build 0)  -->
<!DOCTYPE svg PUBLIC "-//W3C//DTD SVG 1.1//EN" "http://www.w3.org/Graphics/SVG/1.1/DTD/svg11.dtd">
<svg version="1.1" id="Layer_1" xmlns="http://www.w3.org/2000/svg" xmlns:xlink="http://www.w3.org/1999/xlink" x="0px" y="0px"
	 width="80px" height="56px" viewBox="0 0 80 56" enable-background="new 0 0 80 56" xml:space="preserve">
<g>
	<path fill="#33B6E4" d="M16.667,33.82c-0.333,0-0.667-0.109-0.889-0.443c-0.333-0.442-0.223-1.219,0.222-1.553l15.667-11.753
		c0.444-0.332,1-0.332,1.333,0l9.778,7.761l18.889-13.86c0.445-0.333,1.223-0.221,1.557,0.221c0.332,0.444,0.223,1.221-0.223,1.553
		L43.334,30.162c-0.445,0.332-1.002,0.332-1.334,0l-9.778-7.761L17.333,33.6C17.111,33.82,16.889,33.82,16.667,33.82z"/>
	<path fill="#33B6E4" d="M4.444,49.917c-0.666,0-1.11-0.444-1.11-1.109V1.109C3.334,0.444,3.778,0,4.444,0h71.111
		c0.668,0,1.111,0.444,1.111,1.109v47.682c0,0.665-0.443,1.109-1.111,1.109c-0.666,0-1.111-0.444-1.111-1.109V2.217H5.555v46.59
		C5.555,49.473,5.111,49.917,4.444,49.917z"/>
	<path fill="#33B6E4" d="M78.889,56H1.111C0.445,56,0,55.557,0,54.891v-1.109c0-1.331,1-5.544,3.334-5.544h73.332
		C79,48.237,80,52.45,80,53.781v1.109C80,55.557,79.555,56,78.889,56z M2.222,53.781h75.555c0-0.998-0.777-2.994-1.223-3.327H3.444
		C3,50.787,2.222,52.783,2.222,53.781z"/>
	<path fill="#33B6E4" d="M64,49.346h-9.667c-0.333,0-0.556-0.111-0.778-0.332l-2.443-2.551c-0.445-0.443-0.445-1.107,0-1.553
		l2.443-2.551c0.223-0.222,0.557-0.332,0.778-0.332H64c0.668,0,1.109,0.443,1.109,1.108v5.102
		C65.109,48.902,64.555,49.346,64,49.346z M54.777,47.128h8.111v-2.884h-8.111l-1.443,1.442L54.777,47.128z"/>
</g>
</svg>
