<svg xmlns="http://www.w3.org/2000/svg" width="126" height="100">
  <path d="M125.86 99.274l-38.247-33.64c-.03-.026-.062-.048-.097-.063l-11.47-5.41.492-59.637c0-.214-.16-.395-.373-.416L75.14.003c-.23-.025-.407.124-.446.333L64.53 52.496l-7.703-5.19c-.094-.064-.208-.088-.32-.06-.11.022-.205.092-.263.188l-4.686 7.773-16.374-34.04-.052-.11c-.028-.06-.07-.11-.12-.15l-7.23-5.612c-.16-.122-.38-.114-.53.02l-1.223 1.102-1.28-.833c-.164-.107-.38-.084-.517.056L.12 40.024c-.144.146-.16.375-.037.54.123.167.35.216.527.117l26.014-14.147 13.063 40.804L4.535 85.3c-.19.097-.275.32-.198.52l.375.965c.076.2.29.31.495.25l32.89-9.227c.044-.012.084-.03.12-.055l3.954-2.664 5.233 16.345c.036.11.118.205.226.252.105.047.228.047.337-.002l3.07-1.402.612 1.842c.038.115.124.207.236.254.113.044.238.038.346-.02L68.72 83.72l56.753 16.266c.037.01.076.016.113.016.148 0 .29-.082.364-.217.092-.17.055-.382-.09-.51m-77.182-9.97l-20.385-63.68 1.126-.613 21.025 63.484-1.767.81M28.825 23.205L9.72 33.596l17.374-15.62 1.73 5.23m22.914 63.25l-22.38-67.57 4.243 3.292 19.528 40.6-1.6 7.07.21 16.608m13.7-21.22l-11.73 3.384 4.18-18.34 15.456 10.413-7.906 4.544M59.228 81l6.886 1.975-12.476 6.537-.22-16.564 5.587 7.895c.055.075.134.132.224.157m6.41-13.87l50.373 28.196L60.23 79.338l-6.262-8.844 11.67-3.365m.57-13.503L74.59 10.6l-.398 48.408-7.984-5.38m20.276 13.505l29.77 26.188-48.6-27.21 7.5-4.3 11.33 5.323m-33.96-9.918l3.005-4.982-1.736 7.62-1.27-2.638m-38.79 25.483L40.266 69.14l1.312 4.1-4.126 2.808-23.718 6.65z" fill="#763795"/>
</svg>
