<?xml version="1.0" encoding="utf-8"?>
<!-- Generator: Adobe Illustrator 16.0.4, SVG Export Plug-In . SVG Version: 6.00 Build 0)  -->
<!DOCTYPE svg PUBLIC "-//W3C//DTD SVG 1.1//EN" "http://www.w3.org/Graphics/SVG/1.1/DTD/svg11.dtd">
<svg version="1.1" id="Layer_1" xmlns="http://www.w3.org/2000/svg" xmlns:xlink="http://www.w3.org/1999/xlink" x="0px" y="0px"
	 width="21px" height="28px" viewBox="0 0 21 28" enable-background="new 0 0 21 28" xml:space="preserve">
<g>
	<g>
		<g>
			<g>
				<g>
					<path fill="#FF0037" d="M21,10.479c0,3.241-1.239,5.914-3.719,8.027c-0.109,0.07-0.236,0.143-0.383,0.217
						c-0.072,0.035-0.175,0.111-0.302,0.221c-0.126,0.107-0.291,0.354-0.491,0.736c-0.199,0.381-0.302,0.826-0.302,1.334v3.438
						c0,0.73-0.308,1.256-0.93,1.584l-3.607,1.803C11.048,27.947,10.791,28,10.5,28c-0.29,0-0.564-0.072-0.82-0.219L6.181,25.98
						c-0.656-0.289-0.984-0.799-0.984-1.529v-3.438c0-0.037,0-0.07,0-0.107c0.034-0.258,0-0.584-0.11-0.982
						c-0.109-0.4-0.292-0.674-0.547-0.818c-0.038-0.041-0.072-0.074-0.109-0.109c-1.385-0.982-2.469-2.23-3.255-3.74
						C0.393,13.748,0,12.154,0,10.479C0,7.604,1.031,5.14,3.09,3.086C5.148,1.029,7.621,0,10.5,0c2.88,0,5.353,1.029,7.41,3.086
						C19.97,5.14,21,7.604,21,10.479z M19.251,10.479c0-2.399-0.857-4.457-2.571-6.164c-1.714-1.713-3.772-2.566-6.18-2.566
						c-2.407,0-4.466,0.853-6.179,2.566C2.607,6.022,1.75,8.08,1.75,10.479c0,1.457,0.328,2.805,0.985,4.041
						c0.656,1.236,1.549,2.256,2.681,3.059c0.582,0.361,1.002,0.908,1.258,1.637h7.708c0.402-1.02,0.984-1.713,1.75-2.074
						C18.212,15.393,19.251,13.174,19.251,10.479z M6.945,22.707h7.109v-1.693v-0.053H6.945v0.053V22.707z M14.055,24.451H6.945
						l3.555,1.803L14.055,24.451z M15.64,5.188c1.242,1.126,1.86,2.635,1.86,4.527c0,0.217-0.081,0.422-0.247,0.6
						c-0.162,0.184-0.371,0.273-0.628,0.273c-0.255,0-0.466-0.09-0.63-0.273c-0.164-0.178-0.246-0.383-0.246-0.6
						c0-1.271-0.465-2.336-1.395-3.192c-0.928-0.855-1.922-1.28-2.979-1.28c-0.257,0-0.466-0.082-0.629-0.246
						C10.582,4.833,10.5,4.622,10.5,4.369c0-0.255,0.082-0.464,0.247-0.627c0.163-0.165,0.372-0.246,0.629-0.246
						C12.979,3.496,14.401,4.058,15.64,5.188z"/>
				</g>
			</g>
		</g>
	</g>
</g>
</svg>
